<svg xmlns="http://www.w3.org/2000/svg" xmlns:xlink="http://www.w3.org/1999/xlink" viewBox="0 0 498.8 214.68"><defs><style>.cls-1{fill:#6f7272;}.cls-2{fill:#8c9799;}.cls-3{fill:url(#linear-gradient);}.cls-4{fill:url(#linear-gradient-2);}.cls-5{fill:url(#linear-gradient-3);}.cls-6{fill:url(#linear-gradient-4);}</style><linearGradient id="linear-gradient" x1="341.75" y1="189.57" x2="370.44" y2="189.57" gradientUnits="userSpaceOnUse"><stop offset="0" stop-color="#ffb11f"/><stop offset="1" stop-color="#fbd240"/></linearGradient><linearGradient id="linear-gradient-2" x1="382.37" y1="189.02" x2="395.5" y2="189.02" xlink:href="#linear-gradient"/><linearGradient id="linear-gradient-3" x1="293.29" y1="340.32" x2="382.23" y2="340.32" xlink:href="#linear-gradient"/><linearGradient id="linear-gradient-4" x1="158.71" y1="294.29" x2="459.28" y2="294.29" xlink:href="#linear-gradient"/></defs><title>logo-project</title><g id="graphics"><path class="cls-1" d="M420.58,357a6.95,6.95,0,0,1-6.92,6.93h-6.92v-49.7q0-14.25,8.35-19.44a33.58,33.58,0,0,1,18.12-5.2,29.3,29.3,0,0,1,10.28,1.94,19.07,19.07,0,0,1,8.24,5.6q6.12,7.94,6.11,20.36,0,12.83-6.11,20.76A19.08,19.08,0,0,1,436.06,346a20.72,20.72,0,0,1-9-1.83,15.34,15.34,0,0,1-6.52-6.31Zm23.21-38.9q0-8-3.05-12.22a10.11,10.11,0,0,0-8.75-4.27,9.92,9.92,0,0,0-8.56,4.27q-2.85,3.87-2.85,12.22,0,7.74,3.06,11.6a10.1,10.1,0,0,0,8.75,4.28,9.73,9.73,0,0,0,8.35-4.28Q443.8,325.45,443.79,318.12Z" transform="translate(-158.71 -175.22)"/><path class="cls-1" d="M462,275h7.33a6.85,6.85,0,0,1,4.89,1.93,6.35,6.35,0,0,1,2,4.78V345H462Z" transform="translate(-158.71 -175.22)"/><path class="cls-1" d="M516.37,342.75a25,25,0,0,1-9.06,2.75,80.72,80.72,0,0,1-8.45.51A21.29,21.29,0,0,1,486,342q-5.51-4-5.5-13.13,0-8.55,5-12.22a28.67,28.67,0,0,1,12.72-4.88,11.67,11.67,0,0,0,2.45-.31c.94-.2,2-.37,3.25-.51q9-1.22,9-5.29a3.85,3.85,0,0,0-3.15-4,21,21,0,0,0-5.81-.92,14.93,14.93,0,0,0-5.09.82,5.52,5.52,0,0,0-3.25,3.05H482a15.64,15.64,0,0,1,5.71-10.38q5.49-4.68,15.67-4.69,11.4,0,17.1,3.87a13.08,13.08,0,0,1,5.91,11.4v18.53q0,8.14-3,12.73A18,18,0,0,1,516.37,342.75Zm-3.25-25a38.9,38.9,0,0,1-7.95,2.65l-4.68,1A12,12,0,0,0,495.2,324a8.32,8.32,0,0,0-1.43,4.48,6.58,6.58,0,0,0,1.84,4.89A7.68,7.68,0,0,0,500.9,335q5.7,0,9-3.26t3.26-9Z" transform="translate(-158.71 -175.22)"/><path class="cls-1" d="M577.71,345h-7.13a6.61,6.61,0,0,1-6.92-6.92V310.38c0-3.26-1-5.63-2.95-7.13a10.71,10.71,0,0,0-6.62-2.23,10.29,10.29,0,0,0-6.52,2.23c-1.9,1.5-2.85,3.87-2.85,7.13V345H530.47V313.23q0-13.85,7.23-18.53a31.62,31.62,0,0,1,16-5.09,30.66,30.66,0,0,1,16.49,4.69q7.53,4.68,7.54,18.93Z" transform="translate(-158.71 -175.22)"/><path class="cls-1" d="M619.7,328.3h10.18a22.3,22.3,0,0,1-8.55,13Q615,346,605.44,346q-11.6,0-18.12-7.53-6.51-7.34-6.51-21,0-13,6.31-20.36,6.51-7.53,18.12-7.54,12.21,0,18.94,7.33,6.51,7.55,6.51,21v2.24a3.63,3.63,0,0,1-.2,1.43H595.26q.21,6.32,3.06,9.36c1.76,2.18,4.41,3.26,7.94,3.26a11.51,11.51,0,0,0,5.9-1.42,2.79,2.79,0,0,0,1.12-.72c.34-.33.72-.71,1.12-1.12a4.49,4.49,0,0,1,1.53-1.62A6.06,6.06,0,0,1,619.7,328.3Zm-24.44-15.88H616c-.27-3.67-1.22-6.38-2.85-8.15s-4.27-2.85-7.53-2.85a9.92,9.92,0,0,0-7.33,2.85C596.42,306.18,595.4,308.89,595.26,312.42Z" transform="translate(-158.71 -175.22)"/><path class="cls-1" d="M657,345a105.51,105.51,0,0,1-14.56-.2q-7.85-.62-7.84-10V275H642a6.47,6.47,0,0,1,4.69,2,6.7,6.7,0,0,1,2,4.89V291H657v2.85a6.57,6.57,0,0,1-2,5,6.81,6.81,0,0,1-4.88,1.93h-1.43v30.13q0,3.46,4.07,3.47H657Z" transform="translate(-158.71 -175.22)"/><path class="cls-2" d="M438.74,360.4a3.71,3.71,0,0,0-2.64-.89A4.29,4.29,0,0,0,434,360a4.59,4.59,0,0,0-1.52,1.35,6,6,0,0,0-.92,1.89,7.75,7.75,0,0,0,0,4.34,5.94,5.94,0,0,0,.92,1.89,4.59,4.59,0,0,0,1.52,1.35,4.29,4.29,0,0,0,2.12.51,3.69,3.69,0,0,0,1.48-.3,3.83,3.83,0,0,0,1.24-.82,4.23,4.23,0,0,0,.89-1.25,4.56,4.56,0,0,0,.43-1.59h1.69a6.44,6.44,0,0,1-1.85,3.95,5.46,5.46,0,0,1-3.88,1.41,6.45,6.45,0,0,1-2.81-.58,6,6,0,0,1-2.06-1.57,7.08,7.08,0,0,1-1.26-2.33,9.59,9.59,0,0,1,0-5.68,7.08,7.08,0,0,1,1.26-2.33,6.1,6.1,0,0,1,2.06-1.58,6.31,6.31,0,0,1,2.81-.6,6,6,0,0,1,3.78,1.19,5,5,0,0,1,1.85,3.58H440A4.63,4.63,0,0,0,438.74,360.4Z" transform="translate(-158.71 -175.22)"/><path class="cls-2" d="M451.15,358.49v3.25h.05a5.35,5.35,0,0,1,2-2.61,5.29,5.29,0,0,1,3.25-.83V360a5.27,5.27,0,0,0-2.1.31,4.84,4.84,0,0,0-1.63,1,4.62,4.62,0,0,0-1.06,1.6,5.39,5.39,0,0,0-.38,2v7.4h-1.7V358.49Z" transform="translate(-158.71 -175.22)"/><path class="cls-2" d="M464.21,367.79a5.17,5.17,0,0,0,.82,1.76,4.67,4.67,0,0,0,1.43,1.29,4,4,0,0,0,2.07.51,4.11,4.11,0,0,0,2.91-1,5.16,5.16,0,0,0,1.45-2.58h1.69a6.83,6.83,0,0,1-2,3.66,5.91,5.91,0,0,1-4.08,1.29,6.4,6.4,0,0,1-2.84-.58,5.08,5.08,0,0,1-1.95-1.59,6.87,6.87,0,0,1-1.12-2.34,10.71,10.71,0,0,1-.36-2.81,10.2,10.2,0,0,1,.36-2.69,7.35,7.35,0,0,1,1.12-2.36,5.54,5.54,0,0,1,1.95-1.66,5.9,5.9,0,0,1,2.84-.64,5.67,5.67,0,0,1,2.85.68,5.6,5.6,0,0,1,1.92,1.76,7.31,7.31,0,0,1,1.07,2.5,11.5,11.5,0,0,1,.27,2.87H464A7.58,7.58,0,0,0,464.21,367.79Zm8.4-5.19a5.14,5.14,0,0,0-.88-1.57,4.32,4.32,0,0,0-1.37-1.1,3.92,3.92,0,0,0-1.83-.42,4,4,0,0,0-1.86.42,4.32,4.32,0,0,0-1.37,1.1,5.38,5.38,0,0,0-.9,1.59,7.37,7.37,0,0,0-.44,1.84h9A6.49,6.49,0,0,0,472.61,362.6Z" transform="translate(-158.71 -175.22)"/><path class="cls-2" d="M482.66,360.64a3.8,3.8,0,0,1,1.17-1.45,4.9,4.9,0,0,1,1.73-.84,8.42,8.42,0,0,1,2.21-.27,9.46,9.46,0,0,1,1.83.18,4.56,4.56,0,0,1,1.64.66,3.51,3.51,0,0,1,1.18,1.36,4.82,4.82,0,0,1,.46,2.27v7.37a.89.89,0,0,0,1,1,1.32,1.32,0,0,0,.53-.11v1.43c-.19,0-.37.06-.52.07a4.62,4.62,0,0,1-.58,0,2.66,2.66,0,0,1-1-.17,1.33,1.33,0,0,1-.61-.5,1.86,1.86,0,0,1-.28-.77,5.86,5.86,0,0,1-.07-1h-.05a12.53,12.53,0,0,1-.93,1.2,4.77,4.77,0,0,1-1,.87,4.58,4.58,0,0,1-1.32.54,7,7,0,0,1-1.76.19,7.09,7.09,0,0,1-1.82-.23,4,4,0,0,1-1.48-.73,3.43,3.43,0,0,1-1-1.26,4.11,4.11,0,0,1-.37-1.82,3.59,3.59,0,0,1,.65-2.27,4.05,4.05,0,0,1,1.71-1.25,9.72,9.72,0,0,1,2.39-.61c.89-.11,1.79-.23,2.71-.33a9.08,9.08,0,0,0,.94-.14,1.64,1.64,0,0,0,.67-.28,1.37,1.37,0,0,0,.42-.55,2.39,2.39,0,0,0,.15-.92,3.07,3.07,0,0,0-.29-1.41,2.2,2.2,0,0,0-.78-.87,3,3,0,0,0-1.15-.45,8,8,0,0,0-1.42-.12,4.28,4.28,0,0,0-2.63.77,3,3,0,0,0-1.08,2.46h-1.7A5.68,5.68,0,0,1,482.66,360.64Zm8.47,4.14a.93.93,0,0,1-.62.43,5.32,5.32,0,0,1-.8.19c-.72.13-1.46.24-2.22.34a13,13,0,0,0-2.09.44,4.13,4.13,0,0,0-1.55.85,2,2,0,0,0-.6,1.58,2.45,2.45,0,0,0,.25,1.14,2.73,2.73,0,0,0,.69.86,3,3,0,0,0,1,.55,3.57,3.57,0,0,0,1.16.19,5.75,5.75,0,0,0,1.86-.3,4.43,4.43,0,0,0,1.55-.86,3.93,3.93,0,0,0,1-1.37,4.17,4.17,0,0,0,.4-1.83v-2.21Z" transform="translate(-158.71 -175.22)"/><path class="cls-2" d="M507.17,358.49v1.42h-2.83v9.37a3.06,3.06,0,0,0,.23,1.3c.16.32.54.49,1.15.53a14.09,14.09,0,0,0,1.45-.08v1.42q-.37,0-.75,0c-.25,0-.51,0-.76,0a2.5,2.5,0,0,1-3-3.1v-9.5h-2.42v-1.42h2.42v-4.17h1.69v4.17Z" transform="translate(-158.71 -175.22)"/><path class="cls-2" d="M516.72,353.16v2.72H515v-2.72Zm0,5.33v13.88H515V358.49Z" transform="translate(-158.71 -175.22)"/><path class="cls-2" d="M525.68,358.49,530,370.68h.05l4.31-12.19h1.75L531,372.37h-1.81l-5.35-13.88Z" transform="translate(-158.71 -175.22)"/><path class="cls-2" d="M544.45,367.79a5.36,5.36,0,0,0,.82,1.76,4.67,4.67,0,0,0,1.43,1.29,4,4,0,0,0,2.07.51,4.11,4.11,0,0,0,2.91-1,5.09,5.09,0,0,0,1.45-2.58h1.69a6.7,6.7,0,0,1-2,3.66,5.91,5.91,0,0,1-4.08,1.29,6.43,6.43,0,0,1-2.84-.58,5.08,5.08,0,0,1-1.95-1.59,7.06,7.06,0,0,1-1.12-2.34,10.71,10.71,0,0,1-.36-2.81,10.2,10.2,0,0,1,.36-2.69,7.56,7.56,0,0,1,1.12-2.36,5.54,5.54,0,0,1,1.95-1.66,5.92,5.92,0,0,1,2.84-.64,5.67,5.67,0,0,1,2.85.68,5.73,5.73,0,0,1,1.93,1.76,7.49,7.49,0,0,1,1.06,2.5,11.5,11.5,0,0,1,.27,2.87H544.2A7.58,7.58,0,0,0,544.45,367.79Zm8.4-5.19A5.14,5.14,0,0,0,552,361a4.22,4.22,0,0,0-1.37-1.1,3.92,3.92,0,0,0-1.83-.42,4,4,0,0,0-1.86.42,4.44,4.44,0,0,0-1.37,1.1,5.38,5.38,0,0,0-.9,1.59,7.83,7.83,0,0,0-.44,1.84h9A6.17,6.17,0,0,0,552.85,362.6Z" transform="translate(-158.71 -175.22)"/><path class="cls-2" d="M575.81,358.49l3.56,11.89h0l3.39-11.89h1.91l3.39,11.89h0l3.56-11.89h1.8l-4.47,13.88H587.2l-3.42-11.68h-.06l-3.39,11.68h-1.85L574,358.49Z" transform="translate(-158.71 -175.22)"/><path class="cls-2" d="M609.41,358.68a6.2,6.2,0,0,1,2.06,1.58,6.9,6.9,0,0,1,1.26,2.33,9.59,9.59,0,0,1,0,5.68,6.9,6.9,0,0,1-1.26,2.33,6,6,0,0,1-2.06,1.57,7.12,7.12,0,0,1-5.63,0,5.91,5.91,0,0,1-2-1.57,6.92,6.92,0,0,1-1.27-2.33,9.59,9.59,0,0,1,0-5.68,6.92,6.92,0,0,1,1.27-2.33,6.06,6.06,0,0,1,2-1.58,6.9,6.9,0,0,1,5.63,0ZM604.47,360a4.59,4.59,0,0,0-1.52,1.35,6,6,0,0,0-.91,1.89,7.75,7.75,0,0,0,0,4.34,5.92,5.92,0,0,0,.91,1.89,4.59,4.59,0,0,0,1.52,1.35,4.68,4.68,0,0,0,4.25,0,4.59,4.59,0,0,0,1.52-1.35,5.94,5.94,0,0,0,.92-1.89,7.75,7.75,0,0,0,0-4.34,6,6,0,0,0-.92-1.89,4.59,4.59,0,0,0-1.52-1.35,4.68,4.68,0,0,0-4.25,0Z" transform="translate(-158.71 -175.22)"/><path class="cls-2" d="M622.63,358.49v3.25h.06a5.35,5.35,0,0,1,2-2.61,5.29,5.29,0,0,1,3.25-.83V360a5.22,5.22,0,0,0-2.1.31,4.84,4.84,0,0,0-1.63,1,4.62,4.62,0,0,0-1.06,1.6,5.2,5.2,0,0,0-.38,2v7.4h-1.7V358.49Z" transform="translate(-158.71 -175.22)"/><path class="cls-2" d="M636.65,353.16v19.21H635V353.16Z" transform="translate(-158.71 -175.22)"/><path class="cls-2" d="M656,372.37v-2.63h-.06a4,4,0,0,1-.79,1.23,5.07,5.07,0,0,1-1.2,1,6.09,6.09,0,0,1-1.44.6,5.37,5.37,0,0,1-1.52.22,6.1,6.1,0,0,1-2.76-.58,5.39,5.39,0,0,1-1.95-1.59,6.74,6.74,0,0,1-1.15-2.34,10.58,10.58,0,0,1,0-5.62,6.74,6.74,0,0,1,1.15-2.34,5.52,5.52,0,0,1,1.95-1.6,6,6,0,0,1,2.76-.6,6.39,6.39,0,0,1,1.52.19,5.17,5.17,0,0,1,1.39.58,4.77,4.77,0,0,1,1.14,1,4,4,0,0,1,.77,1.31h0v-8h1.7v19.21Zm-9.3-4.8a5.9,5.9,0,0,0,.81,1.9,4.37,4.37,0,0,0,1.41,1.36,4,4,0,0,0,2.07.52,4.69,4.69,0,0,0,2.28-.52,4.57,4.57,0,0,0,1.5-1.36,5.54,5.54,0,0,0,.84-1.9,9.28,9.28,0,0,0,0-4.28,5.54,5.54,0,0,0-.84-1.9,4.44,4.44,0,0,0-1.5-1.35,4.58,4.58,0,0,0-2.28-.53,3.88,3.88,0,0,0-2.07.53,4.24,4.24,0,0,0-1.41,1.35,5.9,5.9,0,0,0-.81,1.9,8.94,8.94,0,0,0,0,4.28Z" transform="translate(-158.71 -175.22)"/><path class="cls-3" d="M360.44,203.23a14.34,14.34,0,1,0-18-9.31A14.34,14.34,0,0,0,360.44,203.23Z" transform="translate(-158.71 -175.22)"/><path class="cls-4" d="M390.93,195.27a6.57,6.57,0,1,0-8.25-4.26A6.57,6.57,0,0,0,390.93,195.27Z" transform="translate(-158.71 -175.22)"/><path class="cls-5" d="M382.23,313.28a502.32,502.32,0,0,1-88.94,52.08A74.77,74.77,0,0,0,382.23,313.28Z" transform="translate(-158.71 -175.22)"/><path class="cls-6" d="M457.44,205.67c-9.6-15.5-53.93-4-109,22.49a74.81,74.81,0,0,0-112.85,66.63c-52.4,36.95-85.1,71.19-75.11,87.33,13,21,91.31-2,172-50.26S470.42,226.63,457.44,205.67ZM249.8,336.39c-7.15,1.51-12,1.16-13.6-1.44s.37-7.36,5.28-13.27A74.08,74.08,0,0,0,249.8,336.39Zm134.92-52.13c-.26-2.32-.62-4.63-1.1-6.94-31.41,26.38-87.16,58.14-122.3,71.7a76.42,76.42,0,0,0,6.85,5.26c-36.07,13.91-64.69,17.09-71.74,5.71s10.09-32.27,40.08-55.59A74.69,74.69,0,0,0,239,314.8C219.6,330.86,209,344,212.44,349.47c11.41,18.44,144.2-54.16,181.64-94.77,9-9.72,13.49-16.87,11.14-20.67-3.31-5.34-19-2.49-41.23,6.34a74.55,74.55,0,0,0-7.19-6.49c32.51-13.43,57.52-17.7,64.15-7C427.81,238,412.57,260.17,384.72,284.26Zm-15.63-38c6.33-1,10.61-.49,12.1,1.91s0,6.29-3.81,11.2A75,75,0,0,0,369.09,246.21Z" transform="translate(-158.71 -175.22)"/></g></svg>