<svg xmlns="http://www.w3.org/2000/svg" viewBox="0 0 441.98 426.72"><defs><style>.cls-1,.cls-4{fill:#dbdbdb;}.cls-2{fill:#fff;}.cls-3{fill:#ebebeb;}.cls-4{opacity:0.5;}.cls-5{fill:#c7c7c7;}.cls-6{fill:none;stroke:#c7c7c7;stroke-miterlimit:10;stroke-width:0.25px;}.cls-7{fill:#263238;}.cls-8{fill:#ffc727;}.cls-9{fill:#455a64;}.cls-10{fill:#eb9481;}.cls-11{fill:#37474f;}.cls-12{opacity:0.1;}.cls-13{fill:#a6a6a6;}.cls-14{fill:#ff9bbc;}.cls-15{opacity:0.2;}</style></defs><title>presentation-background</title><g id="Background_Complete" data-name="Background Complete"><rect class="cls-1" x="280.66" y="44.01" width="133.02" height="203.96" transform="translate(670.39 248.47) rotate(-180)"/><rect class="cls-2" x="350.26" y="52.18" width="56.17" height="90.72" transform="translate(732.74 151.57) rotate(-180)"/><rect class="cls-2" x="287.91" y="52.18" width="56.17" height="90.72" transform="translate(608.04 151.57) rotate(-180)"/><rect class="cls-2" x="350.26" y="149.08" width="56.17" height="90.72" transform="translate(732.74 345.37) rotate(-180)"/><rect class="cls-2" x="287.91" y="149.08" width="56.17" height="90.72" transform="translate(608.04 345.37) rotate(-180)"/><rect class="cls-3" x="382.17" y="44.01" width="31.51" height="291.8" transform="translate(771.9 336.31) rotate(-180)"/><polygon class="cls-2" points="364.19 14.38 363.95 45.92 363.86 77.47 363.69 140.57 363.86 203.67 363.95 235.22 364.19 266.77 364.44 235.22 364.52 203.67 364.69 140.57 364.52 77.47 364.44 45.92 364.19 14.38"/><polygon class="cls-2" points="378.66 21.69 378.42 49.86 378.28 78.03 378.16 134.38 378.27 190.72 378.42 218.89 378.66 247.06 378.9 218.89 379.04 190.72 379.16 134.38 379.04 78.03 378.9 49.86 378.66 21.69"/><polygon class="cls-2" points="371.43 28.34 371.18 61.33 371.1 94.31 370.93 160.29 371.09 226.26 371.18 259.25 371.43 292.24 371.67 259.25 371.76 226.26 371.93 160.29 371.76 94.31 371.67 61.33 371.43 28.34"/><polygon class="cls-2" points="384.04 16.04 383.8 50.56 383.71 85.09 383.54 154.14 383.71 223.19 383.8 257.71 384.04 292.24 384.28 257.71 384.37 223.19 384.54 154.14 384.37 85.09 384.28 50.56 384.04 16.04"/><rect class="cls-3" x="256.71" y="0.5" width="31.51" height="291.8"/><polygon class="cls-2" points="282.24 14.38 282 45.92 281.91 77.47 281.74 140.57 281.91 203.67 282 235.22 282.24 266.77 282.49 235.22 282.57 203.67 282.74 140.57 282.57 77.47 282.48 45.92 282.24 14.38"/><polygon class="cls-2" points="267.77 21.69 267.53 49.86 267.39 78.03 267.27 134.38 267.39 190.72 267.53 218.89 267.77 247.06 268.02 218.89 268.16 190.72 268.27 134.38 268.16 78.03 268.02 49.86 267.77 21.69"/><polygon class="cls-2" points="275.01 28.34 274.76 61.33 274.68 94.31 274.51 160.29 274.67 226.26 274.76 259.25 275.01 292.24 275.25 259.25 275.34 226.26 275.51 160.29 275.34 94.31 275.25 61.33 275.01 28.34"/><polygon class="cls-2" points="262.39 16.04 262.15 50.56 262.06 85.09 261.89 154.14 262.06 223.19 262.15 257.71 262.39 292.24 262.64 257.71 262.73 223.19 262.89 154.14 262.73 85.09 262.64 50.56 262.39 16.04"/><circle class="cls-3" cx="169.9" cy="97.04" r="53.02" transform="translate(-42.81 105.05) rotate(-45)"/><path class="cls-4" d="M153.75,147.55a53,53,0,1,0,.6-101.19,46,46,0,1,1-22.23,13.47,53,53,0,0,0,21.63,87.72Z" transform="translate(-23.96 -43.51)"/><path class="cls-5" d="M190.1,92.49a7.47,7.47,0,1,0,9.38-4.83A7.47,7.47,0,0,0,190.1,92.49Z" transform="translate(-23.96 -43.51)"/><path class="cls-5" d="M141.87,77.07a7.47,7.47,0,1,0,9.38-4.84A7.46,7.46,0,0,0,141.87,77.07Z" transform="translate(-23.96 -43.51)"/><path class="cls-5" d="M163.07,81.47a11.25,11.25,0,1,0,21.43,6.85Z" transform="translate(-23.96 -43.51)"/><path class="cls-1" d="M163.29,88.94A11.25,11.25,0,0,0,180,94.28a13.47,13.47,0,0,0-16.7-5.34Z" transform="translate(-23.96 -43.51)"/><circle class="cls-3" cx="84.6" cy="201.97" r="38.19" transform="translate(-69.32 -17.78) rotate(-13.68)"/><path class="cls-4" d="M94.28,238.91a38.19,38.19,0,1,0-38.72-61.75,33.13,33.13,0,1,1-8.31,16.78,38.21,38.21,0,0,0,47,45Z" transform="translate(-23.96 -43.51)"/><path class="cls-5" d="M59.84,200.65a5.37,5.37,0,1,0,3.83-6.56A5.37,5.37,0,0,0,59.84,200.65Z" transform="translate(-23.96 -43.51)"/><path class="cls-5" d="M95.12,191.4A5.38,5.38,0,1,0,99,184.84,5.37,5.37,0,0,0,95.12,191.4Z" transform="translate(-23.96 -43.51)"/><path class="cls-5" d="M91.49,189.94a12,12,0,0,1-1.9,6.54A9.26,9.26,0,0,1,84.24,200a9.07,9.07,0,0,1-6.39-.35,13.3,13.3,0,0,1-5.11-4.56,10.34,10.34,0,0,0,4.45,5.8,9,9,0,0,0,3.68,1.22,11,11,0,0,0,3.85-.38,11.77,11.77,0,0,0,3.48-1.63,8.85,8.85,0,0,0,2.58-2.9A9.7,9.7,0,0,0,91.49,189.94Z" transform="translate(-23.96 -43.51)"/><rect class="cls-3" x="58.87" y="275.06" width="88.24" height="122.11" transform="translate(182.03 628.73) rotate(-180)"/><rect class="cls-1" x="54.6" y="270.53" width="96.79" height="4.53" transform="translate(182.03 502.09) rotate(-180)"/><rect class="cls-3" x="24.16" y="270.53" width="30.44" height="4.53" transform="translate(54.8 502.09) rotate(-180)"/><rect class="cls-1" x="28.98" y="275.06" width="29.9" height="122.11" transform="translate(63.9 628.73) rotate(-180)"/><rect class="cls-6" x="68.48" y="292.56" width="69.02" height="38.91" transform="translate(182.03 580.52) rotate(-180)"/><rect class="cls-5" x="99.18" y="303.88" width="13.48" height="7.75" transform="translate(187.88 572.01) rotate(-180)"/><rect class="cls-6" x="95.19" y="304.47" width="13.48" height="6.58" transform="translate(179.91 572.01) rotate(-180)"/><rect class="cls-6" x="68.48" y="341.72" width="69.02" height="38.91" transform="translate(182.03 678.84) rotate(-180)"/><rect class="cls-5" x="99.18" y="353.04" width="13.48" height="7.75" transform="translate(187.88 670.33) rotate(-180)"/><rect class="cls-6" x="95.19" y="353.63" width="13.48" height="6.58" transform="translate(179.91 670.33) rotate(-180)"/><path class="cls-3" d="M424.18,239.56l13.36-.28,6.58-.12c2.18,0,4.36,0,6.54,0l-.44.45-.06-11.19.5.5-13.24-.07c-4.41,0-8.82-.11-13.24-.16l.28-.27c0,1.83-.09,3.67-.14,5.53Zm0,0L424,234c0-1.87-.11-3.76-.13-5.65v-.27h.27c4.42-.05,8.83-.16,13.24-.16l13.24-.06h.5v.51l-.05,11.19V240h-.45c-2.23,0-4.47,0-6.69-.05l-6.66-.12Z" transform="translate(-23.96 -43.51)"/><path class="cls-3" d="M439,253.67l13.36-.28,6.58-.12c2.19,0,4.36,0,6.54-.05l-.44.45-.05-11.19.49.49-13.24-.06c-4.41,0-8.82-.11-13.24-.16l.28-.27c0,1.83-.09,3.67-.13,5.53Zm0,0-.14-5.54c0-1.87-.11-3.76-.13-5.65v-.27H439c4.42,0,8.83-.16,13.24-.16l13.24-.06h.51v.51l-.05,11.19v.44h-.45c-2.23,0-4.46,0-6.69-.05l-6.66-.12Z" transform="translate(-23.96 -43.51)"/><path class="cls-3" d="M28.12,253.67l13.35-.28,6.58-.12c2.19,0,4.37,0,6.55-.05l-.45.45,0-11.19.5.49-13.24-.06c-4.42,0-8.83-.11-13.24-.16l.27-.27c0,1.83-.09,3.67-.13,5.53Zm0,0L28,248.13c0-1.87-.11-3.76-.13-5.65v-.27h.28c4.41,0,8.82-.16,13.24-.16L54.6,242h.5v.51L55,253.67v.44H54.6c-2.23,0-4.47,0-6.7-.05l-6.66-.12Z" transform="translate(-23.96 -43.51)"/><path class="cls-3" d="M42.89,55.2l13.35-.28,6.58-.11c2.19-.05,4.37,0,6.55-.06l-.45.45,0-11.19.5.5-13.24-.06c-4.41,0-8.83-.12-13.24-.17l.27-.27c0,1.83-.08,3.67-.13,5.54Zm0,0-.14-5.54c0-1.86-.12-3.75-.13-5.65v-.27h.28c4.41-.05,8.83-.16,13.24-.17l13.24-.06h.5V44L69.81,55.2v.45h-.44c-2.23,0-4.47,0-6.7-.06L56,55.48Z" transform="translate(-23.96 -43.51)"/><path class="cls-3" d="M28.12,69.31,41.47,69l6.58-.11c2.19,0,4.37,0,6.55-.06l-.45.45,0-11.19.5.5-13.24-.06c-4.42,0-8.83-.12-13.24-.17l.27-.27c0,1.83-.09,3.67-.13,5.54Zm0,0L28,63.77c0-1.86-.11-3.75-.13-5.65v-.27h.28c4.41-.05,8.82-.16,13.24-.17l13.24-.06h.5v.5L55,69.31v.45H54.6c-2.23,0-4.47,0-6.7-.06l-6.66-.11Z" transform="translate(-23.96 -43.51)"/><path class="cls-3" d="M424.18,55.2l13.36-.28,6.58-.11c2.18-.05,4.36,0,6.54-.06l-.44.45L450.16,44l.5.5-13.24-.06c-4.41,0-8.82-.12-13.24-.17l.28-.27c0,1.83-.09,3.67-.14,5.54Zm0,0L424,49.66c0-1.86-.11-3.75-.13-5.65v-.27h.27c4.42-.05,8.83-.16,13.24-.17l13.24-.06h.5V44l-.05,11.19v.45h-.45c-2.23,0-4.47,0-6.69-.06l-6.66-.11Z" transform="translate(-23.96 -43.51)"/></g><g id="Shadow"><ellipse class="cls-3" cx="215.43" cy="409.92" rx="115.81" ry="16.8"/></g><g id="Floor"><polygon class="cls-7" points="430.87 353.66 377.01 353.91 323.15 354 215.43 354.16 107.72 354 53.86 353.91 0 353.66 53.86 353.42 107.72 353.33 215.43 353.17 323.15 353.33 377.01 353.42 430.87 353.66"/></g><g id="Plant"><path class="cls-8" d="M390.59,317.31a64,64,0,0,1,2.06,11.7c-.1.2-.08.92,0,.72,0,.64,1,.53,1-.11,0-.41,0-.82,0-1.22,2.28-2.84,5.6-4.64,8.29-7.11a15.53,15.53,0,0,0,4.54-7.22c2.22-7.67.14-15.8,2.81-23.45,2.31-6.59,6.45-12.33,9.95-18.3,3.7-6.32,6.42-13,6.7-20.36.21-5.67-.46-13.22-4.78-17.47-4.57-4.5-10.24-1.12-13.75,2.89-10.16,11.66-14.86,26.39-16.76,41.45-1,8.34-2.13,16.73-1.88,25.14A67.25,67.25,0,0,0,390.59,317.31Z" transform="translate(-23.96 -43.51)"/><path class="cls-7" d="M392.61,332.07a143.29,143.29,0,0,1,.28-23.62s0,0,0-.08c-.13-6.39-.63-12.75-.38-19.14a113.58,113.58,0,0,1,2.81-20.52c0-.08.14-.06.12,0a134,134,0,0,0-2.22,20.07q-.19,5.42.09,10.82c.06,1.17.17,2.35.24,3.54h0a126.26,126.26,0,0,1,19-50.27c.13-.21.5,0,.37.23a131.11,131.11,0,0,0-15.46,37.27c4.89-9.05,12.26-16.49,17.74-25.19,0-.05.1,0,.08.05-4.92,9.68-13,17.32-18.22,26.85-.9,3.89-1.63,7.82-2.18,11.76a131.48,131.48,0,0,0-1.18,16.34c3-5.56,6.06-10.88,8.5-16.76.06-.16.29-.05.24.1-2.08,6.11-4.86,12.69-8.75,17.9,0,3.87.09,7.74.32,11.6.6,10.31,2.36,20.49,3.18,30.76a.24.24,0,0,1-.47.06A236.06,236.06,0,0,1,392.61,332.07Z" transform="translate(-23.96 -43.51)"/><path class="cls-7" d="M403.56,252.55c0-.07.14,0,.11,0-1.88,5.21-2.94,10.49-4.3,15.83a.2.2,0,0,1-.39-.07C399.53,263,401.46,257.54,403.56,252.55Z" transform="translate(-23.96 -43.51)"/><path class="cls-8" d="M355.74,274.38a77.74,77.74,0,0,0,4.33,8.9c3.39,6.16,6.93,11.8,7.57,19,.28,3.2.38,6.42,1.36,9.5a28.24,28.24,0,0,0,3.79,7.44c3.67,5.36,8.27,10,11.67,15.53a65.22,65.22,0,0,1,7.76,18.7c.09.36.65.27.57-.09a.24.24,0,0,1,0-.08.15.15,0,0,0,0-.08c.54-15.38-.69-30.87-5.38-45.6a157.46,157.46,0,0,0-7.45-19c-2.51-5.34-5.64-10.48-10.05-14.47-2.86-2.58-9.07-7.46-13.14-4.88C354.82,270.5,355,272.46,355.74,274.38Z" transform="translate(-23.96 -43.51)"/><path class="cls-7" d="M371.19,309.24a127.39,127.39,0,0,0,8.93,12.84c1.49,1.95,3,3.87,4.49,5.82.7.92,1.49,1.83,2.13,2.82-.4-1.62-.8-3.23-1.21-4.85-2-7.77-3.89-15.61-6.85-23.08A157.24,157.24,0,0,0,368,281.86c-.11-.17.18-.3.28-.13,3.25,5.34,6.55,10.68,9.28,16.31a86.1,86.1,0,0,1,3.94,9.68A149.84,149.84,0,0,0,376.27,287a0,0,0,0,1,.09,0,70.84,70.84,0,0,1,5.44,21.51,0,0,0,0,1,0,0c.67,2,1.28,4,1.85,6,2.42,8.6,4.55,17.29,6.52,26a92.58,92.58,0,0,0-1.48-17.1c0-.13.17-.16.2,0a54.24,54.24,0,0,1,1.49,18q1.11,5,2.17,10c1.52,7.09,3.37,14.3,4.26,21.5a.15.15,0,0,1-.29.05c-1.05-3.88-1.69-7.91-2.55-11.83s-1.76-7.88-2.67-11.8c-1.34-5.73-2.74-11.43-4.16-17.13-1-2.09-2.8-3.95-4.18-5.7-1.51-1.92-3-3.85-4.5-5.8a86.71,86.71,0,0,1-7.4-11.45C371,309.21,371.14,309.16,371.19,309.24Z" transform="translate(-23.96 -43.51)"/><path class="cls-7" d="M370.53,302.66a79.65,79.65,0,0,1,8.75,13.9c0,.06-.07.12-.11.06-2.94-4.61-5.83-9.26-8.77-13.87C370.35,302.67,370.48,302.59,370.53,302.66Z" transform="translate(-23.96 -43.51)"/><path class="cls-8" d="M436,289c-2,3.43-4.27,7.55-3.41,11.67.54,2.61,2.45,4.73,2.79,7.39.78,5.87-5.08,9.75-9.31,12.53-10.56,6.93-25,13.1-27,27.25-.07.5-.94.37-.88-.12a.29.29,0,0,1,0-.09s-.05,0-.05-.08a54.22,54.22,0,0,1,.2-21.61c1.57-7.29,4.76-13.84,8.51-20.25,6.36-10.84,13.09-21.94,22.69-30.24,2.66-2.3,8.11-6.43,10.23-1.25S438.43,284.77,436,289Z" transform="translate(-23.96 -43.51)"/><path class="cls-7" d="M426.33,311.94c-7,7.58-18.13,11.83-24.16,20.32a85.05,85.05,0,0,1,18.56-34.88.27.27,0,0,0-.38-.38,68.63,68.63,0,0,0-15.17,22,98.42,98.42,0,0,1,6.53-16.71.18.18,0,0,0-.31-.18,63.9,63.9,0,0,0-7,18.78c-7.94,19.22-8.68,41.76-7,62a.23.23,0,0,0,.46,0c-.46-16-.2-32.21,3.62-47.8.08-.32.17-.64.25-1,6.56-9.14,17.64-13.37,24.77-22.05C426.51,312,426.4,311.86,426.33,311.94Z" transform="translate(-23.96 -43.51)"/><path class="cls-7" d="M428,305.43c-3.68,3.37-7.29,6.82-11,10.19,0,0,0,.1.06.07a53.74,53.74,0,0,0,11.14-10C428.29,305.5,428.1,305.29,428,305.43Z" transform="translate(-23.96 -43.51)"/><path class="cls-7" d="M428.53,290.82a115.65,115.65,0,0,1-11,15.13c0,.06,0,.15.1.09a53.53,53.53,0,0,0,11.1-15.1A.12.12,0,0,0,428.53,290.82Z" transform="translate(-23.96 -43.51)"/><polygon class="cls-9" points="388.03 353.66 355.84 353.66 360.18 310.36 383.07 310.36 388.03 353.66"/><polygon class="cls-7" points="383.88 317.4 359.47 317.4 360.18 310.36 383.07 310.36 383.88 317.4"/><rect class="cls-9" x="356.85" y="305.56" width="30.17" height="6.91"/></g><g id="Character"><path class="cls-10" d="M255.65,351l-28.46,37.59c-5.48,7.16-10.15,13.53-12.26,17.05,0,0,0,0,0,.06a6.32,6.32,0,0,0-1.17,2.61s0,.06,0,.08c1,3.07,56.93,48.51,59.42,49.43s5.32-6.07,4.56-9.57-14.4-30.47-14.4-30.47l28.07-37.82Z" transform="translate(-23.96 -43.51)"/><path class="cls-3" d="M233,380.84l-5.84,7.71c-5.48,7.16-10.15,13.53-12.26,17.05,0,0,0,0,0,.06a12.7,12.7,0,0,0-1.17,2.61s0,.06,0,.08c1,3.07,56.93,48.51,59.42,49.43s5.32-6.07,4.56-9.57-14.4-30.47-14.4-30.47l6-7.74Z" transform="translate(-23.96 -43.51)"/><path class="cls-8" d="M273.16,457.78c-2.49-.92-58.39-46.35-59.42-49.43-.41-1.17,5.73-9.7,13.45-19.79l.25-.32,36.39,28.91-.51.6s13.62,27,14.39,30.47S275.64,458.72,273.16,457.78Z" transform="translate(-23.96 -43.51)"/><path class="cls-7" d="M274.29,455.1c-9.24-7.89-47.24-38.83-57-45.93-.08-.06-.13,0-.05.06,9,8,47.23,38.66,56.88,46C274.36,455.41,274.48,455.27,274.29,455.1Z" transform="translate(-23.96 -43.51)"/><path class="cls-7" d="M266.26,420.32c-3.14-3.71-8.14-6.82-13.12-6.48-.2,0-.17.28,0,.34a67.3,67.3,0,0,1,12.75,6.6A.31.31,0,0,0,266.26,420.32Z" transform="translate(-23.96 -43.51)"/><path class="cls-7" d="M267.63,424.11c-3.15-3.71-8.15-6.82-13.13-6.48-.19,0-.17.28,0,.34a67.23,67.23,0,0,1,12.75,6.59A.3.3,0,0,0,267.63,424.11Z" transform="translate(-23.96 -43.51)"/><path class="cls-7" d="M269,427.9c-3.14-3.71-8.14-6.83-13.12-6.49-.19,0-.17.29,0,.35a67.84,67.84,0,0,1,12.75,6.59A.3.3,0,0,0,269,427.9Z" transform="translate(-23.96 -43.51)"/><path class="cls-11" d="M229.3,383.63l38.95,32.64s44.82-57.25,54.93-86.14c7.19-20.57-26-123.51-26-123.51l-42.47-2.87s27.49,99.14,24.44,108.77C275.39,324.25,229.3,383.63,229.3,383.63Z" transform="translate(-23.96 -43.51)"/><path class="cls-7" d="M272.58,406.9c-6.05-5-4.24-3.67-10.36-8.62-3-2.43-22.65-18.35-25.84-20.13-.07,0-.15.07-.1.13,2.45,2.7,22.39,18.28,25.42,20.65,6.21,4.84,4.48,3.38,10.74,8.15A.11.11,0,1,0,272.58,406.9Z" transform="translate(-23.96 -43.51)"/><path class="cls-7" d="M242.23,376.56c7.25-9.07,14.34-18.28,21.18-27.66s13.51-18.78,19.61-28.56a31,31,0,0,0,3.51-7.09,18.62,18.62,0,0,0,.3-8.75c-.95-5.79-2.16-11.55-3.37-17.29q-3.66-17.28-8.32-34.34c-3.1-11.36-6.57-22.62-10.24-33.81-.45-1.37-.91-2.75-1.37-4.13-.07-.2.25-.28.32-.08Q270,231.67,275,248.91t8.77,34.55q1.92,8.73,3.57,17.54a36.67,36.67,0,0,1,1,8.72,19.19,19.19,0,0,1-2.09,7.33,58.91,58.91,0,0,1-4.29,7.05q-2.42,3.64-4.9,7.26-5,7.29-10.2,14.43c-6.9,9.44-14,18.79-21.63,27.66-.93,1.09-1.87,2.17-2.8,3.25C242.33,376.8,242.15,376.66,242.23,376.56Z" transform="translate(-23.96 -43.51)"/><path class="cls-7" d="M254.67,203.75s8,28.92,14.92,57c7.73-16,20.91-43.56,25.34-54.32Z" transform="translate(-23.96 -43.51)"/><path class="cls-10" d="M204.16,269.67l-25.38-33.36c-5.92-6.79-11.23-12.65-14.26-15.42a.1.1,0,0,0-.05,0c-1.14-1-1.95-1.65-2.33-1.66,0,0,0,0-.07,0-3.22.39-58.91,46.09-60.31,48.34s4.89,6.43,8.46,6.38,32.74-8,32.74-8l27,33.37Z" transform="translate(-23.96 -43.51)"/><path class="cls-3" d="M162.14,219.19l-.07,0c-3.22.4-58.91,46.1-60.32,48.35s4.9,6.43,8.47,6.38,32.74-8,32.74-8l4.86,6.69c9.18-7.43,25.92-21,36.08-29.53-2.83-4-5.12-6.72-5.13-6.73-5.91-6.8-11.21-12.65-14.24-15.41l-.06-.05C163.33,219.8,162.52,219.2,162.14,219.19Z" transform="translate(-23.96 -43.51)"/><path class="cls-8" d="M101.76,267.52c1.4-2.25,57.09-47.95,60.31-48.34,1.22-.17,8.35,7.55,16.7,17.13l.26.31L143.44,266.5l-.49-.62s-29.14,8-32.73,8S100.34,269.76,101.76,267.52Z" transform="translate(-23.96 -43.51)"/><path class="cls-7" d="M104.16,269.16c9.57-7.47,47.49-38.52,56.39-46.63.07-.07,0-.12-.05-.06C150.85,229.67,113.18,261,104,269,103.84,269.17,104,269.32,104.16,269.16Z" transform="translate(-23.96 -43.51)"/><path class="cls-7" d="M139.84,268.25c4.26-2.34,8.32-6.62,9-11.57,0-.19-.25-.22-.34-.09a67.63,67.63,0,0,1-9,11.18A.3.3,0,0,0,139.84,268.25Z" transform="translate(-23.96 -43.51)"/><path class="cls-7" d="M135.86,268.83c4.26-2.34,8.31-6.62,9-11.57,0-.19-.24-.22-.33-.08a67.51,67.51,0,0,1-9,11.17A.31.31,0,0,0,135.86,268.83Z" transform="translate(-23.96 -43.51)"/><path class="cls-7" d="M131.87,269.41c4.26-2.34,8.32-6.62,9-11.56,0-.2-.25-.23-.34-.09a67.14,67.14,0,0,1-9,11.17A.3.3,0,0,0,131.87,269.41Z" transform="translate(-23.96 -43.51)"/><path class="cls-11" d="M296.4,206.53l0,.05c-.24.86-4.14,14.43-8,26.06-2.82,8.49-5.64,15.93-7,16.63-1.55.78-9.06,3.52-11.58,4.37,0,0-16.16,55.91-29.62,74.1-4.61,6.24-25.61,12.48-35.88,5.74-24.1-15.8-59.8-56.89-59.8-56.89l41.59-34,29.44,39c7.29-13.53,11.25-40.84,11.25-40.84s1.65-27,11.55-38.21Z" transform="translate(-23.96 -43.51)"/><path class="cls-7" d="M154.54,281.55c6.26-4.76,4.53-3.31,10.74-8.14,3-2.37,23-17.92,25.44-20.63.06-.06,0-.16-.1-.12-3.18,1.77-22.86,17.67-25.86,20.09-6.11,4.95-4.3,3.6-10.36,8.62A.11.11,0,0,0,154.54,281.55Z" transform="translate(-23.96 -43.51)"/><path class="cls-7" d="M239.55,234.13c1.34-.25,2.75-.26,4.1-.38,1.1-.1,2.19-.22,3.28-.38a14.09,14.09,0,0,0,5.86-2c2-1.31,3-3.44,4.08-5.49.62-1.21,1.25-2.42,1.89-3.62.31-.58.63-1.16.95-1.74a21.33,21.33,0,0,0,1.16-2.09c0-.1.2,0,.16.06a13.18,13.18,0,0,0-.57,1.52c-.22.59-.43,1.19-.66,1.78-.41,1-.8,2.1-1.23,3.15a25.82,25.82,0,0,1-2.67,5.49c-2.19,3-5.82,4.05-9.39,4.26-1,.05-2,.06-3.07.05a22.74,22.74,0,0,1-3.87-.24A.18.18,0,0,1,239.55,234.13Z" transform="translate(-23.96 -43.51)"/><path class="cls-7" d="M285.35,247.6a95.81,95.81,0,0,0-15.5,6,.17.17,0,0,0,.12.32c5.21-1.83,10.51-3.56,15.62-5.68A.33.33,0,0,0,285.35,247.6Z" transform="translate(-23.96 -43.51)"/><path class="cls-7" d="M289.23,213c0-.18-.31-.24-.32-.05-.37,6-1.11,11.28-2,16.86-.42,2.6-3.49,16.87-7.94,15.51-.75-.23-1.08-1-1.13-2.15a18.16,18.16,0,0,1,.9-4.38c.71-3,1.32-6,1.78-9a82.69,82.69,0,0,0,1-17.07.15.15,0,0,0-.29,0,155.34,155.34,0,0,1-3,23.45c-.82,3.71-3.09,9.23.79,10.07s7.18-8.42,7.84-11A86.72,86.72,0,0,0,289.23,213Z" transform="translate(-23.96 -43.51)"/><path class="cls-7" d="M279.07,245.74a25,25,0,0,0-1.22,2.92,6.88,6.88,0,0,0-.59,2.42.18.18,0,0,0,.31.09,8.4,8.4,0,0,0,1.21-2.32c.41-.9.84-1.79,1.22-2.7A.51.51,0,0,0,279.07,245.74Z" transform="translate(-23.96 -43.51)"/><path class="cls-7" d="M190.49,257.22Q200.08,271,210.82,284q2.91,3.48,5.92,6.88c6.51-9,9.68-19.76,12.21-30.48.65-2.75,1.26-5.51,1.89-8.27.66-2.94,1.52-5.89,1.89-8.9s.22-6.28.5-9.41a72.34,72.34,0,0,1,1.43-9,88.92,88.92,0,0,1,6.84-19.44c0-.08.18,0,.15.06a119.67,119.67,0,0,0-6,17.61,76.9,76.9,0,0,0-1.66,9.29c-.36,3.15-.32,6.3-.53,9.46a56.86,56.86,0,0,1-1.68,8.87c-.63,2.75-1.24,5.51-1.87,8.26A152.26,152.26,0,0,1,225.47,275,60.17,60.17,0,0,1,217,291.48a.3.3,0,0,1-.48,0c-7.34-8.43-14.36-17.16-20.84-26.3q-2.77-3.9-5.45-7.88C190.16,257.21,190.39,257.08,190.49,257.22Z" transform="translate(-23.96 -43.51)"/><path class="cls-7" d="M215.23,281.37a13.25,13.25,0,0,1,.68,1.21l.21.16a2.49,2.49,0,0,1,.38.34,4.83,4.83,0,0,1,.58.84,4.51,4.51,0,0,1,.44,2,0,0,0,1,1,0,0,4.9,4.9,0,0,0-.66-1.84,5.1,5.1,0,0,0-.53-.78,1.56,1.56,0,0,1-.16-.2c0,.08.08.15.11.24a11.92,11.92,0,0,1,.54,2.29,8.69,8.69,0,0,1,0,2.22,10.86,10.86,0,0,1-.36,2.2s0,0,0,0c0-.74.08-1.47,0-2.22s-.23-1.44-.33-2.16a18.82,18.82,0,0,0-.41-2.09c-.17-.7-.31-1.43-.52-2.13C215.06,281.34,215.18,281.3,215.23,281.37Z" transform="translate(-23.96 -43.51)"/><path class="cls-10" d="M261,138.68c7.85,5.66,44.53,20.57,57.9,13.83,13.62-6.88,27.11-43.83,29.79-47,7.35-8.78-24.26-21.22-27.15-15.13-4.83,10.17-15.09,37.33-19.8,37.92-9.91,1.24-19-.05-34.5-.24C256.44,127.91,252.35,132.43,261,138.68Z" transform="translate(-23.96 -43.51)"/><path class="cls-8" d="M318.24,97.09s-12.86,29-15.76,29.8c-4.83,1.38-31,.47-40.4.63s-18.45,8.48,3.81,16.79,41,12.64,53.11,9.92c7.52-1.7,28.17-34.3,28.17-34.3Z" transform="translate(-23.96 -43.51)"/><path class="cls-12" d="M318.24,97.09s-12.86,29-15.76,29.8c-4.83,1.38-31,.47-40.4.63s-18.45,8.48,3.81,16.79,41,12.64,53.11,9.92c7.52-1.7,28.17-34.3,28.17-34.3Z" transform="translate(-23.96 -43.51)"/><path class="cls-7" d="M341.57,125.24C331.26,115.52,319,107,317,105.31c-.1-.08-.21.09-.11.17,2.08,1.51,15.06,12.9,24.6,20C341.57,125.51,341.67,125.33,341.57,125.24Z" transform="translate(-23.96 -43.51)"/><path class="cls-12" d="M252.06,134.15c.4,2.94,4.15,6.55,13.83,10.16,22.25,8.32,41,12.64,53.1,9.92,1.5-.34,3.53-1.91,5.81-4.22C307.65,146.31,266.3,137.41,252.06,134.15Z" transform="translate(-23.96 -43.51)"/><path class="cls-10" d="M346.68,108.81c-3.1,2.31-25-10.58-25.5-14.51a15.45,15.45,0,0,1,.38-4h0s-1.54-8.7-5.4-15.49c-3.23-5.7-8.68-13.8-5.68-15.65,4.37-2.72,12.49,6.7,16.83,12.38,1.54-3.57,3.19-6.49,4.79-7.85,5.28-4.49,28.32,16.57,27,23.49C357.78,93.9,349.78,106.51,346.68,108.81Z" transform="translate(-23.96 -43.51)"/><path class="cls-10" d="M325.33,72.28c1.24,3.38,4.52,0,4.52,0s-3.54,6-.91,9,6.35-1.36,6.63-1.66c-.18.32-3.29,5.94-.34,8.68s6.17-2.08,6.37-2.4c-.08.36-1.05,5.1,1.67,6.67,4.67,2.69,7.47-9.37,11.26-11.52,0,0,4.38,6,4.54,6.17,0,0,2.91-11.42-.28-16.38a3.76,3.76,0,0,0-4.45-1.57s1.34-3.58-.91-5.8c-1.16-1.14-4-.3-4-.3s1-2.91-1.18-4.77c-1.69-1.48-4.29-.41-4.29-.41s-.38-3.22-2.61-4.17C336.85,51.88,322.67,65,325.33,72.28Z" transform="translate(-23.96 -43.51)"/><path class="cls-7" d="M343.5,58.1c.05,0,0-.12-.05-.09a33.55,33.55,0,0,0-13.8,14.41c-.09.2.19.43.33.24A68.73,68.73,0,0,1,343.5,58.1Z" transform="translate(-23.96 -43.51)"/><path class="cls-7" d="M349.45,63.08a.07.07,0,0,0-.08-.11c-5.88,3.32-11.69,9.4-14.08,16.66-.08.25.1.55.21.27C337.46,75.2,344.53,66.92,349.45,63.08Z" transform="translate(-23.96 -43.51)"/><path class="cls-7" d="M341.6,86.46c2.57-6.87,7.07-12.23,12.49-17.07.07-.06,0-.15-.1-.11-3.29,1.64-6.43,5.08-8.64,8a19.4,19.4,0,0,0-4,9.13C341.34,86.51,341.55,86.61,341.6,86.46Z" transform="translate(-23.96 -43.51)"/><path class="cls-7" d="M329.72,72.28c-.1.24.36.14.26.38-.43,1-2.48,7.26-.57,8.62,1.54,1.09,4.07-.22,4.84-1.11L336.2,78l-1.06,2.77a12,12,0,0,0-.81,3.83,4.32,4.32,0,0,0,1.1,3.36,2.47,2.47,0,0,0,3.08.43,7.4,7.4,0,0,0,2.57-2.72l1.8-3L342.17,86a11.64,11.64,0,0,0-.23,2.89,4.7,4.7,0,0,0,.81,2.58,2.22,2.22,0,0,0,2.18.86,4.88,4.88,0,0,0,2.25-1.58,38.67,38.67,0,0,0,3.5-5c.56-.86,1.11-1.73,1.71-2.57a7.36,7.36,0,0,1,2.14-2.2,7.91,7.91,0,0,0-1.9,2.36c-.53.87-1,1.77-1.5,2.68a32.74,32.74,0,0,1-3.31,5.25,5.78,5.78,0,0,1-2.65,2,3.16,3.16,0,0,1-3.26-1.15A5.69,5.69,0,0,1,340.82,89a12.52,12.52,0,0,1,.21-3.23l1.08.41a8.49,8.49,0,0,1-3,3.24,3.53,3.53,0,0,1-2.38.46,4.05,4.05,0,0,1-2.11-1.12,5.41,5.41,0,0,1-1.4-4.25,12.85,12.85,0,0,1,1-4.2l.89.54c-1,1.09-3.69,2.86-6.28,1.48C325.66,80,329,73.44,329.72,72.28Z" transform="translate(-23.96 -43.51)"/><path class="cls-7" d="M329.85,72.26a7.44,7.44,0,0,1-2,1,1.66,1.66,0,0,1-1.66-.34,3.36,3.36,0,0,1-.77-1.77c-.12-.72-.22-1.48-.28-2.26a5.74,5.74,0,0,0-.51,2.33,3.39,3.39,0,0,0,.86,2.43,2.42,2.42,0,0,0,1.3.61,2.6,2.6,0,0,0,1.34-.26A3.92,3.92,0,0,0,329.85,72.26Z" transform="translate(-23.96 -43.51)"/><path class="cls-3" d="M233.05,218c.21.16,64.72-7,65.25-7.83.74-1.22-18.48-68.09-33.24-81.82-3.69-3.43-13.9-1.9-18,2.53C226.7,152.87,232.32,217.43,233.05,218Z" transform="translate(-23.96 -43.51)"/><path class="cls-8" d="M265.62,128.37l24.78,90.3,12.67-9.09s-20.7-58.5-26.65-67.81S265.62,128.37,265.62,128.37Z" transform="translate(-23.96 -43.51)"/><path class="cls-12" d="M265.62,128.37l24.78,90.3,12.67-9.09s-20.7-58.5-26.65-67.81S265.62,128.37,265.62,128.37Z" transform="translate(-23.96 -43.51)"/><path class="cls-8" d="M251,127.73s1,34.74,1,42.9,1.89,52.72,1.89,52.72L224.57,218s5.36-43.21,7.22-53.19S241.51,130.67,251,127.73Z" transform="translate(-23.96 -43.51)"/><path class="cls-12" d="M251,127.73s1,34.74,1,42.9,1.89,52.72,1.89,52.72L224.57,218s5.36-43.21,7.22-53.19S241.51,130.67,251,127.73Z" transform="translate(-23.96 -43.51)"/><path class="cls-10" d="M244.07,147.26c-17.06,17.47-39.67,36.16-52.24,33.49-11.37-2.42-27.71-15.75-45.54-30.12-3.54-2.85,20.09-29.23,23.56-25.81,6.83,6.73,20.85,23.91,26.08,25.81,2.24.81,27.32-11.72,43.76-18C259.65,125,250.87,140.3,244.07,147.26Z" transform="translate(-23.96 -43.51)"/><path class="cls-10" d="M130.63,138.48c4.68,5.63,20.92,16.19,25,16.76s18.14-22.91,16.58-26.88-18.77-21.72-26.09-23.23S125.78,132.64,130.63,138.48Z" transform="translate(-23.96 -43.51)"/><path class="cls-10" d="M157,109.71c.57,3.83-4.28,2.32-4.28,2.32s6.46,3.86,5.52,8c-.91,4-6.71,2-7.12,1.85.34.21,6.18,3.92,4.8,8-1.43,4.27-6.89,1.23-7.25,1,.26.3,3.62,4.28,1.87,7.16-3,5-11.89-5-16.59-5.06,0,0-2.85,5.61-2.93,5.83,0,0-6.81-6.94-6.36-13.27a4,4,0,0,1,3.39-3.78s-3.12-2.69-2.14-6c.51-1.68,3.64-2.36,3.64-2.36s-2.4-2.26-1.35-5.11c.83-2.28,3.84-2.61,3.84-2.61s-1.3-3.24.31-5.29C135.53,96.39,155.71,101.49,157,109.71Z" transform="translate(-23.96 -43.51)"/><path class="cls-7" d="M132.46,105.71a.06.06,0,0,1,0-.11,36.06,36.06,0,0,1,20.47,6.48c.19.14.05.5-.19.39A73.77,73.77,0,0,0,132.46,105.71Z" transform="translate(-23.96 -43.51)"/><path class="cls-7" d="M129.41,113.48c-.08,0-.06-.14,0-.14,7.26.1,15.89,2.84,21.89,8.46.21.19.2.57-.05.37C147,118.73,136.05,114.57,129.41,113.48Z" transform="translate(-23.96 -43.51)"/><path class="cls-7" d="M148.91,131.51c-6-5.16-13-7.89-20.61-9.66-.1,0-.06-.16,0-.17,4-.15,8.7,1.49,12.28,3.07a20.75,20.75,0,0,1,8.48,6.56C149.18,131.42,149,131.63,148.91,131.51Z" transform="translate(-23.96 -43.51)"/><path class="cls-7" d="M152.67,112a22.25,22.25,0,0,1,3.25,2.87,7.93,7.93,0,0,1,2.11,3.57,2.62,2.62,0,0,1-.29,1.85,3.85,3.85,0,0,1-1.36,1.36,4.69,4.69,0,0,1-3.78.1l-3-1.1,2.42,2.07a12.88,12.88,0,0,1,2.75,3.19,4.68,4.68,0,0,1,.69,3.75,2.67,2.67,0,0,1-2.68,2,8.13,8.13,0,0,1-3.84-1.24l-3.24-1.91,2.43,2.85a12.31,12.31,0,0,1,1.71,2.62,5.09,5.09,0,0,1,.57,2.85,2.4,2.4,0,0,1-1.61,1.94,5.29,5.29,0,0,1-2.95-.32A41.91,41.91,0,0,1,140,135.6c-1-.53-1.94-1.06-2.94-1.55a7.86,7.86,0,0,0-3.16-1,8.51,8.51,0,0,1,3,1.24c1,.56,1.87,1.16,2.8,1.76a35.23,35.23,0,0,0,5.84,3.25,6.17,6.17,0,0,0,3.52.5,3.4,3.4,0,0,0,2.49-2.77,6.26,6.26,0,0,0-.61-3.56,13.9,13.9,0,0,0-1.86-2.94l-.82.95A9.29,9.29,0,0,0,152.8,133a3.88,3.88,0,0,0,2.48-.8,4.43,4.43,0,0,0,1.42-2.15,5.91,5.91,0,0,0-.87-4.74,14.4,14.4,0,0,0-3.08-3.47l-.57,1a5.55,5.55,0,0,0,4.67-.37,4.67,4.67,0,0,0,1.6-1.76,3.4,3.4,0,0,0,.26-2.38,8.13,8.13,0,0,0-2.51-3.69A19.35,19.35,0,0,0,152.67,112Z" transform="translate(-23.96 -43.51)"/><path class="cls-10" d="M169.85,124.82S161,95,151.07,104.19c-3,2.72-11.86,17.42-8.94,19.27,3.77,2.38,8.63-3.07,11.14-7,0,0,1.58,10.55,9.25,11.65A7.71,7.71,0,0,0,169.85,124.82Z" transform="translate(-23.96 -43.51)"/><path class="cls-7" d="M151.94,103.48a16.31,16.31,0,0,0-3.39,3.3,35,35,0,0,0-2.73,3.9,54.6,54.6,0,0,0-4.34,8.48,9,9,0,0,0-.6,2.45,3.4,3.4,0,0,0,.18,1.43,2.48,2.48,0,0,0,.39.7,2.59,2.59,0,0,0,.59.52,4,4,0,0,0,2.72.53,7.67,7.67,0,0,0,2.44-.9,14.36,14.36,0,0,0,3.7-3.22,32,32,0,0,0,2.83-3.88l-1-.23a19.66,19.66,0,0,0,1,3.51,17.08,17.08,0,0,0,1.63,3.22,12.32,12.32,0,0,0,2.39,2.7,9.38,9.38,0,0,0,3.11,1.74,10.68,10.68,0,0,1-2.85-2,13,13,0,0,1-2.06-2.78,17.18,17.18,0,0,1-1.38-3.17,18.93,18.93,0,0,1-.76-3.34l-.17-1.4-.83,1.17a36.32,36.32,0,0,1-2.84,3.65,14.26,14.26,0,0,1-3.42,2.91c-1.23.69-2.77,1.06-3.79.4-.95-.5-.58-2.19-.1-3.58a43.72,43.72,0,0,1,1.8-4.28c.65-1.42,1.33-2.83,2.07-4.2C148.07,108.39,149.62,105.61,151.94,103.48Z" transform="translate(-23.96 -43.51)"/><path class="cls-8" d="M173.32,128.19S194,149.28,197,149.09c5-.32,35.39-14.73,44.3-17.73s18.46-1.23,4.38,15.41c-15.89,18.77-33.68,35.49-52.07,35.51-9.91,0-40.78-21.54-40.78-21.54Z" transform="translate(-23.96 -43.51)"/><path class="cls-12" d="M173.32,128.19S194,149.28,197,149.09c5-.32,35.39-14.73,44.3-17.73s18.46-1.23,4.38,15.41c-15.89,18.77-33.68,35.49-52.07,35.51-9.91,0-40.78-21.54-40.78-21.54Z" transform="translate(-23.96 -43.51)"/><path class="cls-7" d="M160.76,162.53c6.46-12.62,15.14-24.78,16.51-27,.06-.11.22,0,.15.12-1.45,2.12-9.87,17.2-16.49,27C160.85,162.78,160.69,162.65,160.76,162.53Z" transform="translate(-23.96 -43.51)"/><path class="cls-7" d="M232.51,161.06a17.84,17.84,0,0,0,1.32-1.56c.49-.53,1-1.06,1.47-1.59,1-1,1.91-2,2.86-3.07,1.89-2.05,3.9-4,5.86-6,0,0,.07,0,0,0-1.79,2.16-3.55,4.33-5.49,6.36l-.13.14,1.14-.77c.79-.53,1.58-1.06,2.36-1.6.05,0,.1.05.06.08-.73.6-1.48,1.17-2.27,1.7-.4.27-.8.53-1.22.78l-.58.34-2.19,2.27-1.52,1.52c-.51.5-1.14.9-1.6,1.45C232.56,161.25,232.43,161.13,232.51,161.06Z" transform="translate(-23.96 -43.51)"/><path class="cls-10" d="M263.47,140.61c-3.06.74-10.6-3.78-14.06-8.15-.23-.3-.31-3.87-.62-8.2-.19-2.63-.47-5.55-.92-8.2l17.28,1.23a42.81,42.81,0,0,0,.12,10.43,5.57,5.57,0,0,0,.3,1.07c0,.05,0,.11.05.18C266.31,131,268.26,139.45,263.47,140.61Z" transform="translate(-23.96 -43.51)"/><path class="cls-7" d="M265.56,128.79a.63.63,0,0,1,.06.18,10.57,10.57,0,0,1-1.69.38c-9.48,1.38-13.73-9.74-14.81-13.2l16,1.13a43,43,0,0,0,.1,10.45A6.87,6.87,0,0,0,265.56,128.79Z" transform="translate(-23.96 -43.51)"/><path class="cls-10" d="M240.2,96.19c-.25,6.23,7.18,22.12,12.26,24.76,7.37,3.83,17.26,1.79,20-6.57,2.62-8.11-7.42-28.64-12.9-30.81C251.46,80.36,240.56,87,240.2,96.19Z" transform="translate(-23.96 -43.51)"/><path class="cls-13" d="M254.14,99.58a14.29,14.29,0,0,0,1.15-1.06,2.5,2.5,0,0,0,1-1.3.82.82,0,0,0-.51-.85,2,2,0,0,0-1.93.61,2.91,2.91,0,0,0-1,1.83A.86.86,0,0,0,254.14,99.58Z" transform="translate(-23.96 -43.51)"/><path class="cls-13" d="M264.82,95c-.52.13-1,.16-1.55.24a2.56,2.56,0,0,1-1.62-.06.82.82,0,0,1-.35-.92A2,2,0,0,1,263,93.1a2.9,2.9,0,0,1,2.1.32A.86.86,0,0,1,264.82,95Z" transform="translate(-23.96 -43.51)"/><path class="cls-7" d="M260.33,111.86a1.74,1.74,0,0,0,1.19.25,3,3,0,0,0,1-.77,0,0,0,0,1,.08,0,1.61,1.61,0,0,1-1.13,1.18,1.23,1.23,0,0,1-1.26-.59C260.2,111.9,260.28,111.84,260.33,111.86Z" transform="translate(-23.96 -43.51)"/><path class="cls-7" d="M260.07,108.13a4,4,0,0,0,3.18.58,5.27,5.27,0,0,0,1.35-.51,1.38,1.38,0,0,0,.24-.14,1.35,1.35,0,0,0,.22-.14.29.29,0,0,0,.12-.33h0a.54.54,0,0,0-.05-.11h0l0-.09c-.34-.85-1-2.08-1-2.08.37,0,2.22,0,2-.37a59.9,59.9,0,0,0-6.24-10.57c-.07-.11-.25,0-.18.11,1.56,3.45,3.72,6.61,5.35,10.05a6.76,6.76,0,0,0-2,.22c-.1.08,1.26,2.36,1.38,2.76a.16.16,0,0,0,0,0,5.63,5.63,0,0,1-4.34.46C260,108,260,108.07,260.07,108.13Z" transform="translate(-23.96 -43.51)"/><path class="cls-7" d="M263.93,108a4.84,4.84,0,0,1-1.17,2.11,2.15,2.15,0,0,1-1.17.59c-1,.15-1.33-.64-1.46-1.39a5.27,5.27,0,0,1-.06-1.21A6.21,6.21,0,0,0,263.93,108Z" transform="translate(-23.96 -43.51)"/><path class="cls-14" d="M262.76,110.1a2.15,2.15,0,0,1-1.17.59c-1,.15-1.33-.64-1.46-1.39A2.23,2.23,0,0,1,262.76,110.1Z" transform="translate(-23.96 -43.51)"/><path class="cls-7" d="M255.44,102.23a1.8,1.8,0,0,1,.07-.94,1.32,1.32,0,0,1,.74-.71,1.18,1.18,0,0,1,1,.15,1.87,1.87,0,0,1,.6.69,4.83,4.83,0,0,1,.23.52,2.48,2.48,0,0,1,.14,1.14,4.12,4.12,0,0,0-.32-.78,5.84,5.84,0,0,0-.41-.64c-.31-.41-.72-.7-1.09-.54a1,1,0,0,0-.55,1.07,8.45,8.45,0,0,0,.23,1.6A3.76,3.76,0,0,1,255.44,102.23Z" transform="translate(-23.96 -43.51)"/><path class="cls-7" d="M265.93,97.4a1.87,1.87,0,0,0-.73-.59,1.29,1.29,0,0,0-1,0,1.17,1.17,0,0,0-.61.84,2,2,0,0,0,.08.92,4.77,4.77,0,0,0,.22.52,2.53,2.53,0,0,0,.73.89,3.48,3.48,0,0,1-.34-.77,5,5,0,0,1-.18-.74c-.08-.51,0-1,.36-1.16a1,1,0,0,1,1.16.34,8.14,8.14,0,0,1,1,1.28A3.56,3.56,0,0,0,265.93,97.4Z" transform="translate(-23.96 -43.51)"/><g class="cls-15"><path d="M256,93.57a14.77,14.77,0,0,0,1.86-.56c.61-.26,1.16-.63,1.77-.87a10.72,10.72,0,0,1,3.67-.56c.11,0,.12.07,0,.07a9.19,9.19,0,0,0-3.79.88,11.47,11.47,0,0,1-3,1.19A11.56,11.56,0,0,0,250.12,97s0,0,0,0A11.63,11.63,0,0,1,256,93.57Z" transform="translate(-23.96 -43.51)"/><path d="M255.34,92a13.69,13.69,0,0,0,1.76-.53c.58-.25,1.1-.6,1.68-.83a10.06,10.06,0,0,1,3.48-.53c.1,0,.11.06,0,.07a8.66,8.66,0,0,0-3.59.83,10.81,10.81,0,0,1-2.83,1.13,11,11,0,0,0-6.08,3.07s0,0,0,0A11,11,0,0,1,255.34,92Z" transform="translate(-23.96 -43.51)"/></g><path class="cls-13" d="M264.5,87.89C260.1,94,250,90.82,250,90.82a6.75,6.75,0,0,1-5,6.32s2.4,10.28-.21,11.19c-4,1.41-10-11.6-9.74-14.7s3.42-5,3.42-5a6.88,6.88,0,0,1,1.29-4.89c2-3,12.32-3.62,12.32-3.62a9.3,9.3,0,0,1,1.23-4.09,2.6,2.6,0,0,1,3.65-.94,6.22,6.22,0,0,0-.08,2.77c.58,3.06,2.94,2.2,2-.41a4.29,4.29,0,0,0-1.89-2.36c.55-2.13,2.25-3.38,3.74-2.87C263.35,73.15,268.16,82.83,264.5,87.89Z" transform="translate(-23.96 -43.51)"/><path class="cls-9" d="M258,107.63a4.79,4.79,0,1,1,2.54-7.13h0a4.8,4.8,0,0,1-1.46,6.62A4.44,4.44,0,0,1,258,107.63Zm-2.8-8.49a3.94,3.94,0,0,0-.93.44,4.16,4.16,0,1,0,.93-.44Z" transform="translate(-23.96 -43.51)"/><path class="cls-9" d="M268,102.93c-1.74.58-3.91-.68-5-3a5.67,5.67,0,0,1-.49-3.46,3,3,0,0,1,4.63-2.16A5.74,5.74,0,0,1,269.46,97c1.12,2.39.57,5-1.21,5.85Zm-3.26-8.31-.22.09a2.56,2.56,0,0,0-1.35,1.93,5.09,5.09,0,0,0,.44,3.07c1,2.08,2.94,3.21,4.41,2.53s1.87-2.93.9-5a5.11,5.11,0,0,0-2.06-2.32A2.65,2.65,0,0,0,264.7,94.62Z" transform="translate(-23.96 -43.51)"/><path class="cls-9" d="M260.64,101.07l-.58-.27c.4-.86,1.58-2.31,3.17-1.67l-.24.59C261.56,99.14,260.68,101,260.64,101.07Z" transform="translate(-23.96 -43.51)"/><path class="cls-9" d="M241.81,111.2l-.64,0c0-.29.15-2.93,1.35-3.75s9.25-3.65,9.59-3.78l.22.61c-2.33.83-8.59,3.11-9.45,3.7S241.84,110.48,241.81,111.2Z" transform="translate(-23.96 -43.51)"/><path class="cls-10" d="M247.33,108.85s-5.27-4.3-7.33-2.27,3,9,6.14,9.26a3,3,0,0,0,3.45-2.67Z" transform="translate(-23.96 -43.51)"/><path class="cls-7" d="M241.49,108.54s0,.08,0,.08c2.24.24,3.82,1.8,5.11,3.52a1.67,1.67,0,0,0-2.53.24.07.07,0,0,0,.08.1,1.86,1.86,0,0,1,2.15.06,9.13,9.13,0,0,1,1.39,1.32c.15.16.44,0,.32-.22l0,0C247.31,111,244.31,108,241.49,108.54Z" transform="translate(-23.96 -43.51)"/><path class="cls-3" d="M265.71,128.47,262,138.82l-13.16-12.41-3.43,4.28s13.18,20,13.22,19.08l3.86-9,6.3,5.88-1.08-15.33Z" transform="translate(-23.96 -43.51)"/><path class="cls-7" d="M268.7,139.09c-.27-2.52-.46-5.07-.84-7.58,0-.09-.16-.13-.18,0-.41,2.46.65,12.11.73,14.43l0,0c-.26-.26-5.83-5.16-5.88-5.08-.85,1.43-3.69,8-3.88,8.54-2.08-3.18-10.05-14.72-12.49-17.71a.08.08,0,1,0-.14.09c1.86,3.37,12.41,18.92,12.56,18.87a97.35,97.35,0,0,0,4-9.46c1,1.08,6.59,6.64,6.59,6.27A79.89,79.89,0,0,0,268.7,139.09Z" transform="translate(-23.96 -43.51)"/></g><g id="Stars"><polygon class="cls-8" points="184.58 215.7 188.61 216.45 189.51 220.7 190.41 216.45 194.45 215.7 190.43 214.72 189.51 210.7 188.59 214.72 184.58 215.7"/><polygon class="cls-8" points="253.3 26 257.33 26.74 258.23 30.99 259.13 26.74 263.17 25.99 259.15 25.01 258.23 21 257.31 25.01 253.3 26"/><polygon class="cls-8" points="301.7 162.5 305.73 163.25 306.63 167.5 307.54 163.25 311.57 162.5 307.55 161.52 306.63 157.5 305.71 161.52 301.7 162.5"/><polygon class="cls-8" points="187.13 145.38 191.17 146.12 192.07 150.37 192.97 146.12 197 145.37 192.99 144.39 192.07 140.38 191.15 144.39 187.13 145.38"/><polygon class="cls-8" points="135.01 128.58 137.27 129 137.77 131.37 138.27 129 140.53 128.58 138.28 128.03 137.77 125.78 137.26 128.03 135.01 128.58"/><polygon class="cls-8" points="274.76 120.76 277.01 121.17 277.52 123.55 278.02 121.17 280.28 120.75 278.03 120.21 277.52 117.96 277 120.21 274.76 120.76"/><polygon class="cls-8" points="204.91 41.65 207.16 42.07 207.66 44.45 208.17 42.07 210.42 41.65 208.18 41.1 207.66 38.86 207.15 41.1 204.91 41.65"/><polygon class="cls-8" points="152.32 167.02 154.57 167.44 155.08 169.81 155.58 167.44 157.84 167.02 155.59 166.47 155.08 164.22 154.57 166.47 152.32 167.02"/><polygon class="cls-8" points="170.66 171.59 172.91 172.01 173.42 174.38 173.92 172.01 176.17 171.59 173.93 171.04 173.42 168.8 172.9 171.04 170.66 171.59"/><polygon class="cls-8" points="170.66 76.94 172.91 77.36 173.42 79.74 173.92 77.36 176.17 76.94 173.93 76.39 173.42 74.15 172.9 76.39 170.66 76.94"/><polygon class="cls-8" points="268.52 73.54 270.77 73.95 271.28 76.33 271.78 73.95 274.03 73.54 271.79 72.99 271.28 70.74 270.76 72.99 268.52 73.54"/><polygon class="cls-8" points="324.05 71.08 326.31 71.5 326.81 73.88 327.31 71.5 329.57 71.08 327.32 70.53 326.81 68.29 326.3 70.53 324.05 71.08"/><polygon class="cls-8" points="293.75 182.86 296 183.28 296.51 185.66 297.01 183.28 299.27 182.86 297.02 182.31 296.51 180.07 296 182.31 293.75 182.86"/><path class="cls-8" d="M203.91,225.72a.65.65,0,0,1,0,1.3A.65.65,0,0,1,203.91,225.72Z" transform="translate(-23.96 -43.51)"/><path class="cls-8" d="M194,134.07a.66.66,0,0,1,0,1.31A.66.66,0,0,1,194,134.07Z" transform="translate(-23.96 -43.51)"/><path class="cls-8" d="M309,78a.66.66,0,0,1,0,1.31A.66.66,0,0,1,309,78Z" transform="translate(-23.96 -43.51)"/><path class="cls-8" d="M358.86,119.15a.65.65,0,0,1,0,1.3A.65.65,0,0,1,358.86,119.15Z" transform="translate(-23.96 -43.51)"/><path class="cls-8" d="M320.46,183.88a.66.66,0,0,1,0,1.31A.66.66,0,0,1,320.46,183.88Z" transform="translate(-23.96 -43.51)"/><path class="cls-8" d="M339.81,171.93a.46.46,0,0,1,0,.92A.46.46,0,0,1,339.81,171.93Z" transform="translate(-23.96 -43.51)"/><path class="cls-8" d="M303.85,94a.46.46,0,0,1,0,.92A.46.46,0,0,1,303.85,94Z" transform="translate(-23.96 -43.51)"/><path class="cls-8" d="M290.14,158.92a.47.47,0,0,1,0,.93A.47.47,0,0,1,290.14,158.92Z" transform="translate(-23.96 -43.51)"/><path class="cls-8" d="M332.78,242.62a.47.47,0,0,1,0,.93A.47.47,0,0,1,332.78,242.62Z" transform="translate(-23.96 -43.51)"/><path class="cls-8" d="M217.81,232.15a1.26,1.26,0,0,1,0,2.51A1.26,1.26,0,0,1,217.81,232.15Z" transform="translate(-23.96 -43.51)"/><path class="cls-8" d="M142.5,160a1.25,1.25,0,0,1,0,2.5A1.25,1.25,0,0,1,142.5,160Z" transform="translate(-23.96 -43.51)"/><path class="cls-8" d="M268.94,60.66a1.26,1.26,0,0,1,0,2.51A1.26,1.26,0,0,1,268.94,60.66Z" transform="translate(-23.96 -43.51)"/><path class="cls-8" d="M285.36,110.58a1.26,1.26,0,0,1,0,2.51A1.26,1.26,0,0,1,285.36,110.58Z" transform="translate(-23.96 -43.51)"/><path class="cls-8" d="M326.86,238.37a1.26,1.26,0,0,1,0,2.51A1.26,1.26,0,0,1,326.86,238.37Z" transform="translate(-23.96 -43.51)"/></g></svg>